<svg width="420" height="460" viewBox="0 0 420 460" fill="none" xmlns="http://www.w3.org/2000/svg">
<path fill-rule="evenodd" clip-rule="evenodd" d="M40 0C17.9086 0 0 17.9086 0 40V215C8.28427 215 15 221.716 15 230C15 238.284 8.28427 245 0 245V420C0 442.091 17.9086 460 40 460H380C402.091 460 420 442.091 420 420V244C411.716 244 405 237.284 405 229C405 220.716 411.716 214 420 214V40C420 17.9086 402.091 0 380 0H40ZM24.64 230.075V230.66H19V230.075H24.64ZM32.3263 230.075V230.66H26.6863V230.075H32.3263ZM40.0127 230.075V230.66H34.3727V230.075H40.0127ZM47.699 230.075V230.66H42.059V230.075H47.699ZM55.3853 230.075V230.66H49.7453V230.075H55.3853ZM63.0716 230.075V230.66H57.4316V230.075H63.0716ZM70.758 230.075V230.66H65.118V230.075H70.758ZM78.4443 230.075V230.66H72.8043V230.075H78.4443ZM86.1306 230.075V230.66H80.4906V230.075H86.1306ZM93.817 230.075V230.66H88.177V230.075H93.817ZM101.503 230.075V230.66H95.8633V230.075H101.503ZM109.19 230.075V230.66H103.55V230.075H109.19ZM116.876 230.075V230.66H111.236V230.075H116.876ZM124.562 230.075V230.66H118.922V230.075H124.562ZM132.249 230.075V230.66H126.609V230.075H132.249ZM139.935 230.075V230.66H134.295V230.075H139.935ZM147.621 230.075V230.66H141.981V230.075H147.621ZM155.308 230.075V230.66H149.668V230.075H155.308ZM162.994 230.075V230.66H157.354V230.075H162.994ZM170.68 230.075V230.66H165.04V230.075H170.68ZM178.367 230.075V230.66H172.727V230.075H178.367ZM186.053 230.075V230.66H180.413V230.075H186.053ZM193.739 230.075V230.66H188.099V230.075H193.739ZM201.426 230.075V230.66H195.786V230.075H201.426ZM209.112 230.075V230.66H203.472V230.075H209.112ZM216.798 230.075V230.66H211.158V230.075H216.798ZM224.485 230.075V230.66H218.845V230.075H224.485ZM232.171 230.075V230.66H226.531V230.075H232.171ZM239.857 230.075V230.66H234.217V230.075H239.857ZM247.544 230.075V230.66H241.904V230.075H247.544ZM255.23 230.075V230.66H249.59V230.075H255.23ZM262.916 230.075V230.66H257.276V230.075H262.916ZM270.602 230.075V230.66H264.962V230.075H270.602ZM278.289 230.075V230.66H272.649V230.075H278.289ZM285.975 230.075V230.66H280.335V230.075H285.975ZM293.661 230.075V230.66H288.021V230.075H293.661ZM301.348 230.075V230.66H295.708V230.075H301.348ZM309.034 230.075V230.66H303.394V230.075H309.034ZM316.72 230.075V230.66H311.08V230.075H316.72ZM324.407 230.075V230.66H318.767V230.075H324.407ZM332.093 230.075V230.66H326.453V230.075H332.093ZM339.779 230.075V230.66H334.139V230.075H339.779ZM347.466 230.075V230.66H341.826V230.075H347.466ZM355.152 230.075V230.66H349.512V230.075H355.152ZM362.838 230.075V230.66H357.198V230.075H362.838ZM370.525 230.075V230.66H364.885V230.075H370.525ZM378.211 230.075V230.66H372.571V230.075H378.211ZM385.897 230.075V230.66H380.257V230.075H385.897ZM393.584 230.075V230.66H387.944V230.075H393.584ZM401.27 230.075V230.66H395.63V230.075H401.27Z" fill="#1E1E1E"/>
</svg>
