<svg width="420" height="200" viewBox="0 0 420 200" fill="none" xmlns="http://www.w3.org/2000/svg">
<path fill-rule="evenodd" clip-rule="evenodd" d="M20 0C8.95435 0 0 8.95428 0 20V124.033C0.330566 124.011 0.66394 124 1 124C9.2843 124 16 130.716 16 139C16 147.284 9.2843 154 1 154C0.66394 154 0.330566 153.989 0 153.967V180C0 191.046 8.95435 200 20 200H400C411.046 200 420 191.046 420 180V154C411.716 154 405 147.284 405 139C405 130.716 411.716 124 420 124V20C420 8.95428 411.046 0 400 0H20ZM25.61 139.66V139.075H19.97V139.66H25.61ZM33.2963 139.66V139.075H27.6564V139.66H33.2963ZM40.9827 139.66V139.075H35.3427V139.66H40.9827ZM48.6689 139.66V139.075H43.0291V139.66H48.6689ZM56.3553 139.66V139.075H50.7153V139.66H56.3553ZM64.0416 139.66V139.075H58.4016V139.66H64.0416ZM71.728 139.66V139.075H66.088V139.66H71.728ZM79.4143 139.66V139.075H73.7743V139.66H79.4143ZM87.1006 139.66V139.075H81.4606V139.66H87.1006ZM94.787 139.66V139.075H89.147V139.66H94.787ZM102.473 139.66V139.075H96.8333V139.66H102.473ZM110.16 139.66V139.075H104.52V139.66H110.16ZM117.846 139.66V139.075H112.206V139.66H117.846ZM125.532 139.66V139.075H119.892V139.66H125.532ZM133.219 139.66V139.075H127.579V139.66H133.219ZM140.905 139.66V139.075H135.265V139.66H140.905ZM148.591 139.66V139.075H142.951V139.66H148.591ZM156.278 139.66V139.075H150.638V139.66H156.278ZM163.964 139.66V139.075H158.324V139.66H163.964ZM171.65 139.66V139.075H166.01V139.66H171.65ZM179.337 139.66V139.075H173.697V139.66H179.337ZM187.023 139.66V139.075H181.383V139.66H187.023ZM194.709 139.66V139.075H189.069V139.66H194.709ZM202.396 139.66V139.075H196.756V139.66H202.396ZM210.082 139.66V139.075H204.442V139.66H210.082ZM217.768 139.66V139.075H212.128V139.66H217.768ZM225.455 139.66V139.075H219.815V139.66H225.455ZM233.141 139.66V139.075H227.501V139.66H233.141ZM240.827 139.66V139.075H235.187V139.66H240.827ZM248.514 139.66V139.075H242.874V139.66H248.514ZM256.2 139.66V139.075H250.56V139.66H256.2ZM263.886 139.66V139.075H258.246V139.66H263.886ZM271.572 139.66V139.075H265.932V139.66H271.572ZM279.259 139.66V139.075H273.619V139.66H279.259ZM286.945 139.66V139.075H281.305V139.66H286.945ZM294.631 139.66V139.075H288.991V139.66H294.631ZM302.318 139.66V139.075H296.678V139.66H302.318ZM310.004 139.66V139.075H304.364V139.66H310.004ZM317.69 139.66V139.075H312.05V139.66H317.69ZM325.377 139.66V139.075H319.737V139.66H325.377ZM333.063 139.66V139.075H327.423V139.66H333.063ZM340.749 139.66V139.075H335.109V139.66H340.749ZM348.436 139.66V139.075H342.796V139.66H348.436ZM356.122 139.66V139.075H350.482V139.66H356.122ZM363.808 139.66V139.075H358.168V139.66H363.808ZM371.495 139.66V139.075H365.855V139.66H371.495ZM379.181 139.66V139.075H373.541V139.66H379.181ZM386.867 139.66V139.075H381.227V139.66H386.867ZM394.554 139.66V139.075H388.914V139.66H394.554ZM402.24 139.66V139.075H396.6V139.66H402.24Z" fill="#FCFCFC"/>
</svg>
