<svg width="224" height="36" viewBox="0 0 224 36" fill="none" xmlns="http://www.w3.org/2000/svg">
<path d="M120.839 26.5165C119.091 28.2647 116.863 29.4552 114.439 29.9375C112.014 30.4198 109.501 30.1723 107.216 29.2262C104.932 28.2801 102.98 26.6779 101.607 24.6223C100.233 22.5667 99.5 20.1499 99.5 17.6777C99.5 15.2054 100.233 12.7887 101.607 10.733C102.98 8.67743 104.932 7.07527 107.216 6.12918C109.501 5.18308 112.014 4.93554 114.439 5.41786C116.863 5.90017 119.091 7.09068 120.839 8.83884C122 9.99957 122.92 11.3776 123.548 12.8941C124.177 14.4107 124.5 16.0361 124.5 17.6777C124.5 19.3192 124.177 20.9446 123.548 22.4612C122.92 23.9778 122 25.3558 120.839 26.5165ZM121.872 17.7402C121.872 17.1217 120.287 16.6204 119.669 16.6204L115.856 16.6215L115.845 16.5992L111.965 9.82353C111.874 9.68235 111.75 9.5648 111.604 9.48042C111.459 9.39603 111.295 9.3472 111.127 9.33788L110.171 9.33788C110.104 9.33286 110.037 9.34474 109.976 9.37243C109.915 9.40012 109.862 9.44273 109.822 9.49633C109.782 9.54994 109.756 9.61281 109.746 9.67916C109.736 9.74551 109.744 9.81321 109.767 9.87601L111.351 15.3789L111.351 16.6226L108.067 16.6204C107.711 16.6408 107.359 16.7099 107.022 16.8258L106.182 15.2561C106.095 15.1133 105.975 14.9937 105.831 14.9078C105.688 14.8218 105.525 14.772 105.358 14.7627L105.065 14.7615C104.916 14.7615 104.774 14.8206 104.668 14.9257C104.563 15.0308 104.504 15.1733 104.504 15.322L104.504 17.0547L104.505 17.0871L104.504 18.3989L104.504 18.4324L104.503 20.164C104.504 20.3125 104.563 20.4548 104.668 20.5598C104.773 20.6648 104.915 20.724 105.064 20.7244H105.358C105.525 20.7152 105.688 20.6655 105.831 20.5795C105.975 20.4935 106.095 20.3739 106.182 20.231L107.022 18.659C107.36 18.7744 107.712 18.8432 108.068 18.8633L111.351 18.8622L111.352 20.1048L109.766 25.6055C109.743 25.6683 109.735 25.736 109.745 25.8023C109.754 25.8687 109.781 25.9316 109.821 25.9852C109.861 26.0388 109.914 26.0814 109.975 26.1091C110.036 26.1368 110.103 26.1486 110.17 26.1436H111.126C111.294 26.1343 111.458 26.0854 111.604 26.0008C111.75 25.9162 111.874 25.7984 111.965 25.6568L115.844 18.8845L115.856 18.8611L119.669 18.86C120.287 18.86 121.87 18.3598 121.872 17.7402Z" fill="black"/>
<g clip-path="url(#clip0_329_345)">
<path d="M133.919 17.831V18.209H126.275V17.831H133.919ZM143.88 17.831V18.209H136.236V17.831H143.88ZM153.841 17.831V18.209H146.197V17.831H153.841ZM163.802 17.831V18.209H156.158V17.831H163.802ZM173.763 17.831V18.209H166.119V17.831H173.763ZM183.724 17.831V18.209H176.08V17.831H183.724ZM193.685 17.831V18.209H186.041V17.831H193.685ZM203.646 17.831V18.209H196.002V17.831H203.646ZM213.607 17.831V18.209H205.963V17.831H213.607ZM223.568 17.831V18.209H215.924V17.831H223.568Z" fill="black"/>
</g>
<g clip-path="url(#clip1_329_345)">
<path d="M7.91878 17.831V18.209H0.27478V17.831H7.91878ZM17.8799 17.831V18.209H10.2359V17.831H17.8799ZM27.8409 17.831V18.209H20.1969V17.831H27.8409ZM37.802 17.831V18.209H30.158V17.831H37.802ZM47.763 17.831V18.209H40.119V17.831H47.763ZM57.7241 17.831V18.209H50.0801V17.831H57.7241ZM67.6852 17.831V18.209H60.0412V17.831H67.6852ZM77.6462 17.831V18.209H70.0022V17.831H77.6462ZM87.6073 17.831V18.209H79.9633V17.831H87.6073ZM97.5683 17.831V18.209H89.9243V17.831H97.5683Z" fill="black"/>
</g>
<defs>
<clipPath id="clip0_329_345">
<rect width="98" height="2" fill="white" transform="translate(126 17)"/>
</clipPath>
<clipPath id="clip1_329_345">
<rect width="98" height="2" fill="white" transform="translate(0 17)"/>
</clipPath>
</defs>
</svg>
