<svg width="224" height="36" viewBox="0 0 224 36" fill="none" xmlns="http://www.w3.org/2000/svg">
<path d="M103.161 9.48349C104.909 7.73529 107.137 6.54479 109.561 6.06249C111.986 5.58019 114.499 5.82769 116.784 6.77379C119.068 7.71989 121.02 9.3221 122.393 11.3777C123.767 13.4333 124.5 15.8501 124.5 18.3223C124.5 20.7946 123.767 23.2113 122.393 25.267C121.02 27.3226 119.068 28.9247 116.784 29.8708C114.499 30.8169 111.986 31.0645 109.561 30.5821C107.137 30.0998 104.909 28.9093 103.161 27.1612C102 26.0004 101.08 24.6224 100.452 23.1059C99.823 21.5893 99.5 19.9639 99.5 18.3223C99.5 16.6808 99.823 15.0554 100.452 13.5388C101.08 12.0222 102 10.6442 103.161 9.48349ZM102.128 18.2598C102.128 18.8783 103.713 19.3796 104.331 19.3796L108.144 19.3785L108.155 19.4008L112.035 26.1765C112.126 26.3176 112.25 26.4352 112.396 26.5196C112.541 26.604 112.705 26.6528 112.873 26.6621H113.829C113.896 26.6671 113.963 26.6553 114.024 26.6276C114.085 26.5999 114.138 26.5573 114.178 26.5037C114.218 26.4501 114.244 26.3872 114.254 26.3208C114.264 26.2545 114.256 26.1868 114.233 26.124L112.649 20.6211V19.3774L115.933 19.3796C116.289 19.3592 116.641 19.2901 116.978 19.1742L117.818 20.7439C117.905 20.8867 118.025 21.0063 118.169 21.0922C118.312 21.1782 118.475 21.228 118.642 21.2373L118.935 21.2385C119.084 21.2385 119.226 21.1794 119.332 21.0743C119.437 20.9692 119.496 20.8267 119.496 20.678V18.9453L119.495 18.9129L119.496 17.6011V17.5676L119.497 15.836C119.496 15.6875 119.437 15.5452 119.332 15.4402C119.227 15.3352 119.085 15.276 118.936 15.2756H118.642C118.475 15.2848 118.312 15.3345 118.169 15.4205C118.025 15.5065 117.905 15.6261 117.818 15.769L116.978 17.341C116.64 17.2256 116.288 17.1568 115.932 17.1367L112.649 17.1378L112.648 15.8952L114.234 10.3945C114.257 10.3317 114.265 10.264 114.255 10.1977C114.246 10.1313 114.219 10.0684 114.179 10.0148C114.139 9.96119 114.086 9.91859 114.025 9.89089C113.964 9.86319 113.897 9.85139 113.83 9.85639H112.874C112.706 9.86569 112.542 9.9146 112.396 9.9992C112.25 10.0838 112.126 10.2016 112.035 10.3432L108.156 17.1155L108.144 17.1389L104.331 17.14C103.713 17.14 102.13 17.6402 102.128 18.2598Z" fill="white"/>
<mask id="mask0_421_108" style="mask-type:luminance" maskUnits="userSpaceOnUse" x="0" y="17" width="98" height="2">
<path d="M0 19L98 19V17L0 17V19Z" fill="white"/>
</mask>
<g mask="url(#mask0_421_108)">
<path d="M90.0811 18.169V17.791H97.7251V18.169H90.0811ZM80.1201 18.169V17.791H87.7641V18.169H80.1201ZM70.1591 18.169V17.791L77.8031 17.791V18.169L70.1591 18.169ZM60.1981 18.169V17.791H67.8421V18.169H60.1981ZM50.2371 18.169V17.791H57.8811V18.169H50.2371ZM40.2761 18.169V17.791H47.9201V18.169H40.2761ZM30.3151 18.169V17.791H37.9591V18.169H30.3151ZM20.3541 18.169V17.791L27.9981 17.791V18.169L20.3541 18.169ZM10.3931 18.169V17.791H18.0371V18.169H10.3931ZM0.432106 18.169V17.791H8.0761V18.169H0.432106Z" fill="white"/>
</g>
<mask id="mask1_421_108" style="mask-type:luminance" maskUnits="userSpaceOnUse" x="126" y="17" width="98" height="2">
<path d="M126 19L224 19V17L126 17V19Z" fill="white"/>
</mask>
<g mask="url(#mask1_421_108)">
<path d="M216.081 18.169V17.791H223.725V18.169H216.081ZM206.12 18.169V17.791H213.764V18.169H206.12ZM196.159 18.169V17.791L203.803 17.791V18.169L196.159 18.169ZM186.198 18.169V17.791H193.842V18.169H186.198ZM176.237 18.169V17.791H183.881V18.169H176.237ZM166.276 18.169V17.791H173.92V18.169H166.276ZM156.315 18.169V17.791H163.959V18.169H156.315ZM146.354 18.169V17.791L153.998 17.791V18.169L146.354 18.169ZM136.393 18.169V17.791H144.037V18.169H136.393ZM126.432 18.169V17.791H134.076V18.169H126.432Z" fill="white"/>
</g>
</svg>
