<svg width="390" height="1" viewBox="0 0 390 1" fill="none" xmlns="http://www.w3.org/2000/svg">
<g clip-path="url(#clip0_934_572)">
<path d="M0.754049 0V1H-5V0H0.754049ZM8.59578 0V1H2.84176V0H8.59578ZM16.4376 0V1H10.6836V0H16.4376ZM24.2793 0V1H18.5253V0H24.2793ZM32.1211 0V1H26.367V0H32.1211ZM39.9628 0V1H34.2087V0H39.9628ZM47.8046 0V1H42.0506V0H47.8046ZM55.6463 0V1H49.8923V0H55.6463ZM63.4881 0V1H57.734V0H63.4881ZM71.3299 0V1H65.5759V0H71.3299ZM79.1716 0V1H73.4176V0H79.1716ZM87.0134 0V1H81.2593V0H87.0134ZM94.8551 0V1H89.101V0H94.8551ZM102.697 0V1H96.9426V0H102.697ZM110.539 0V1H104.785V0H110.539ZM118.38 0V1H112.626V0H118.38ZM126.222 0V1H120.468V0H126.222ZM134.064 0V1H128.31V0H134.064ZM141.906 0V1H136.152V0H141.906ZM149.747 0V1H143.993V0H149.747ZM157.59 0V1H151.836V0H157.59ZM165.431 0V1H159.677V0H165.431ZM173.272 0V1H167.518V0H173.272ZM181.115 0V1H175.361V0H181.115ZM188.956 0V1H183.202V0H188.956ZM196.798 0V1H191.044V0H196.798ZM204.64 0V1H198.886V0H204.64ZM212.482 0V1H206.728V0H212.482ZM220.323 0V1H214.569V0H220.323ZM228.165 0V1H222.411V0H228.165ZM236.007 0V1H230.253V0H236.007ZM243.848 0V1H238.094V0H243.848ZM251.69 0V1H245.936V0H251.69ZM259.532 0V1H253.778V0H259.532ZM267.374 0V1H261.62V0H267.374ZM275.215 0V1H269.461V0H275.215ZM283.057 0V1H277.303V0H283.057ZM290.899 0V1H285.145V0H290.899ZM298.74 0V1H292.986V0H298.74ZM306.583 0V1H300.829V0H306.583ZM314.424 0V1H308.67V0H314.424ZM322.266 0V1H316.512V0H322.266ZM330.108 0V1H324.354V0H330.108ZM337.949 0V1H332.195V0H337.949ZM345.791 0V1H340.037V0H345.791ZM353.633 0V1H347.879V0H353.633ZM361.475 0V1H355.721V0H361.475ZM369.316 0V1H363.562V0H369.316ZM377.159 0V1H371.405V0H377.159ZM385 0V1H379.246V0H385Z" fill="#1E1E1E" fill-opacity="0.56"/>
</g>
<defs>
<clipPath id="clip0_934_572">
<rect width="390" height="1" fill="white"/>
</clipPath>
</defs>
</svg>
