<svg width="23" height="23" viewBox="0 0 23 23" fill="none" xmlns="http://www.w3.org/2000/svg">
<path d="M6.41838 9.58923H3.63777C3.40164 9.58923 3.21051 9.76328 3.21051 9.97833V12.5106C3.21051 12.7254 3.40164 12.8997 3.63777 12.8997H6.41838C6.65451 12.8997 6.84564 12.7254 6.84564 12.5106V9.97833C6.84564 9.76354 6.65451 9.58923 6.41838 9.58923ZM5.99112 12.1215H4.06503V10.3674H5.99112V12.1215Z" fill="#F5F7F8"/>
<path d="M12.904 9.58923H10.1234C9.88723 9.58923 9.69611 9.76328 9.69611 9.97833V12.5106C9.69611 12.7254 9.88723 12.8997 10.1234 12.8997H12.904C13.1398 12.8997 13.3312 12.7254 13.3312 12.5106V9.97833C13.3312 9.76354 13.1398 9.58923 12.904 9.58923ZM12.4767 12.1215H10.5506V10.3674H12.4767V12.1215Z" fill="#F5F7F8"/>
<path d="M19.1888 9.58923H16.4082C16.1724 9.58923 15.981 9.76328 15.981 9.97833V12.5106C15.981 12.7254 16.1724 12.8997 16.4082 12.8997H19.1888C19.4247 12.8997 19.6161 12.7254 19.6161 12.5106V9.97833C19.6161 9.76354 19.4247 9.58923 19.1888 9.58923ZM18.7616 12.1215H16.8355V10.3674H18.7616V12.1215Z" fill="#F5F7F8"/>
<path d="M6.41838 15.3573H3.63777C3.40164 15.3573 3.21051 15.5316 3.21051 15.7464V18.2786C3.21051 18.4934 3.40164 18.6677 3.63777 18.6677H6.41838C6.65451 18.6677 6.84564 18.4934 6.84564 18.2786V15.7464C6.84564 15.5316 6.65451 15.3573 6.41838 15.3573ZM5.99112 17.8895H4.06503V16.1355H5.99112V17.8895Z" fill="#F5F7F8"/>
<path d="M12.904 15.3573H10.1234C9.88723 15.3573 9.69611 15.5316 9.69611 15.7464V18.2786C9.69611 18.4934 9.88723 18.6677 10.1234 18.6677H12.904C13.1398 18.6677 13.3312 18.4934 13.3312 18.2786V15.7464C13.3312 15.5316 13.1398 15.3573 12.904 15.3573ZM12.4767 17.8895H10.5506V16.1355H12.4767V17.8895Z" fill="#F5F7F8"/>
<path d="M19.1888 15.3573H16.4082C16.1724 15.3573 15.981 15.5316 15.981 15.7464V18.2786C15.981 18.4934 16.1724 18.6677 16.4082 18.6677H19.1888C19.4247 18.6677 19.6161 18.4934 19.6161 18.2786V15.7464C19.6161 15.5316 19.4247 15.3573 19.1888 15.3573ZM18.7616 17.8895H16.8355V16.1355H18.7616V17.8895Z" fill="#F5F7F8"/>
<path d="M22.5727 2.05445H19.7508C19.7471 2.05445 19.744 2.05523 19.7403 2.05549V1.53721C19.7403 0.689486 18.9832 0 18.0523 0C17.1215 0 16.3644 0.689746 16.3644 1.53721V2.05445H13.1847V1.53721C13.1847 0.689486 12.4276 0 11.4967 0C10.5659 0 9.80876 0.689746 9.80876 1.53721V2.05445H6.6288V1.53721C6.6288 0.689486 5.8717 0 4.94084 0C4.00998 0 3.25288 0.689746 3.25288 1.53721V2.05471C3.25145 2.05471 3.25003 2.05445 3.2486 2.05445H0.42726C0.191128 2.05445 0 2.22851 0 2.44355V22.6109C0 22.8257 0.191128 23 0.42726 23H22.5727C22.8086 23 23 22.8257 23 22.6109V2.44355C23 2.22851 22.8086 2.05445 22.5727 2.05445ZM17.2189 1.53721C17.2189 1.11853 17.5926 0.778201 18.0523 0.778201C18.5121 0.778201 18.8858 1.11853 18.8858 1.53721V3.68426C18.8858 4.10268 18.5121 4.44327 18.0523 4.44327C17.5926 4.44327 17.2189 4.10294 17.2189 3.68426V1.53721ZM11.4967 0.778201C11.9562 0.778201 12.3302 1.11853 12.3302 1.53721V3.68426C12.3302 4.10268 11.9565 4.44327 11.4967 4.44327C11.037 4.44327 10.6633 4.10294 10.6633 3.68426V2.47987C10.6644 2.46768 10.6673 2.456 10.6673 2.44329C10.6673 2.43058 10.6644 2.41891 10.6633 2.40672V1.53721C10.6633 1.11853 11.037 0.778201 11.4967 0.778201ZM4.1074 1.53721C4.1074 1.11853 4.48111 0.778201 4.94084 0.778201C5.40029 0.778201 5.77428 1.11853 5.77428 1.53721V3.68426C5.77428 4.10268 5.40057 4.44327 4.94084 4.44327C4.48111 4.44327 4.1074 4.10294 4.1074 3.68426V1.53721ZM22.1455 22.2218H0.854521V2.83265H3.2486C3.25003 2.83265 3.25145 2.83239 3.25288 2.83239V3.68452C3.25288 4.53224 4.01027 5.22173 4.94084 5.22173C5.87141 5.22173 6.6288 4.53224 6.6288 3.68452V2.83291H9.80876V3.68452C9.80876 4.53224 10.5662 5.22173 11.4967 5.22173C12.4273 5.22173 13.1847 4.53224 13.1847 3.68452V2.83291H16.3644V3.68452C16.3644 4.53224 17.1215 5.22173 18.0523 5.22173C18.9832 5.22173 19.7403 4.53224 19.7403 3.68452V2.83162C19.744 2.83162 19.7471 2.83265 19.7508 2.83265H22.1455V22.2218Z" fill="#F5F7F8"/>
</svg>
