<svg width="20" height="20" viewBox="0 0 20 20" fill="none" xmlns="http://www.w3.org/2000/svg">
<path d="M7 12.5H8V3.75H7C6.44781 3.75 6 4.30977 6 5V11.25C6 11.9402 6.44781 12.5 7 12.5ZM18 11.25V5C18 4.30977 17.5522 3.75 17 3.75H16V12.5H17C17.5522 12.5 18 11.9402 18 11.25ZM19.5 15H4V0.625C4 0.279687 3.77625 0 3.5 0H0.5C0.22375 0 0 0.279687 0 0.625V1.875C0 2.22031 0.22375 2.5 0.5 2.5H2V16.875C2 17.2203 2.22375 17.5 2.5 17.5H5.09188C5.03594 17.6965 5 17.9047 5 18.125C5 19.1605 5.67156 20 6.5 20C7.32844 20 8 19.1605 8 18.125C8 17.9047 7.96406 17.6965 7.90812 17.5H14.0919C14.0359 17.6965 14 17.9047 14 18.125C14 19.1605 14.6716 20 15.5 20C16.3284 20 17 19.1605 17 18.125C17 17.9047 16.9641 17.6965 16.9081 17.5H19.5C19.7763 17.5 20 17.2203 20 16.875V15.625C20 15.2797 19.7763 15 19.5 15ZM15 3.75V1.875C15 0.839453 14.3284 0 13.5 0H10.5C9.67156 0 9 0.839453 9 1.875V12.5H15V3.75ZM13.5 3.75H10.5V1.875H13.5V3.75Z" fill="#F5F7F8"/>
</svg>
