<svg width="20" height="20" viewBox="0 0 20 20" fill="none" xmlns="http://www.w3.org/2000/svg">
<path d="M1.97529 2.13574C1.08419 1.10932 -0.546691 2.08067 0.182693 3.69893C0.668558 4.77863 1.60728 7.41721 2.91772 9.31767C4.22879 11.2181 5.62588 11.0149 7.03703 11.4752L8.05083 12.0009L14.9863 20L16.3889 18.7765L16.3963 18.7704C16.1912 18.5335 9.88374 11.2579 7.38981 8.38185C4.9215 5.53512 2.40866 2.63577 1.97529 2.13574Z" fill="#1D1D1D"/>
<path d="M18.6197 3.6365L16.2003 6.42812C16.0452 6.60686 15.7761 6.6252 15.5978 6.46976L15.5118 6.3951C15.3348 6.24025 15.3152 5.97032 15.4703 5.79162L17.9013 2.98715C18.3005 2.52751 18.1113 2.12047 17.8146 1.86217C17.5186 1.6045 17.0907 1.47288 16.6916 1.93319L14.2605 4.73766C14.1061 4.91578 13.8363 4.93473 13.6587 4.7793L13.5732 4.70464C13.395 4.54979 13.3761 4.27927 13.5305 4.10116L15.9506 1.30953C16.6653 0.485711 15.4702 -0.507061 14.7726 0.297804C13.937 1.2612 12.4618 2.96271 12.4618 2.96271C11.1727 4.43901 11.1922 5.13063 11.3741 6.09951C11.5218 6.88052 11.7385 7.44236 10.9383 8.36537L9.75729 9.7278L10.9963 11.1557L12.3495 9.59497C13.1491 8.67259 13.7344 8.80969 14.5261 8.84703C15.5087 8.89415 16.1942 8.81702 17.4723 7.33217C17.4723 7.33217 18.9475 5.62941 19.7831 4.66602C20.4807 3.86115 19.3338 2.8133 18.6197 3.6365Z" fill="#1D1D1D"/>
<path d="M7.25615 12.6124L1.91797 18.7697L3.32849 19.9999L8.55683 13.9699L7.48077 12.7287L7.25615 12.6124Z" fill="#1D1D1D"/>
</svg>
