<svg width="800" height="800" viewBox="0 0 800 800" fill="none" xmlns="http://www.w3.org/2000/svg">
<path d="M400 787.5C186.325 787.5 12.5 613.675 12.5 400C12.5 186.325 186.325 12.5 400 12.5C613.675 12.5 787.5 186.325 787.5 400C787.5 613.675 613.675 787.5 400 787.5Z" fill="#4BD37B"/>
<path d="M400 25C606.775 25 775 193.225 775 400C775 606.775 606.775 775 400 775C193.225 775 25 606.775 25 400C25 193.225 193.225 25 400 25ZM400 0C179.087 0 0 179.087 0 400C0 620.912 179.087 800 400 800C620.912 800 800 620.912 800 400C800 179.087 620.912 0 400 0Z" fill="#4BD37B"/>
<path d="M356.04 695.968V626.978C300.451 624.784 246.543 611.712 215 595.735L239.923 510.705C274.776 527.392 323.692 542.659 377.653 542.659C424.941 542.659 457.289 526.682 457.289 497.633C457.289 470.006 430.738 452.545 369.334 434.374C280.573 408.215 219.974 371.888 219.974 301.414C219.974 237.444 271.448 187.32 360.209 172.053V103H441.473V166.97C497.062 169.164 534.42 179.284 561.777 190.935L537.73 273.076C516.189 265.088 478.008 248.337 418.232 248.337C364.324 248.337 346.897 268.687 346.897 289.053C346.897 313.018 375.936 328.284 446.465 351.538C545.155 382.071 585 422.013 585 487.466C585 552.147 532.72 607.355 437.34 621.911V696H356.04V695.968Z" fill="white" fill-opacity="0.85"/>
</svg>
