<svg width="800" height="800" viewBox="0 0 800 800" fill="none" xmlns="http://www.w3.org/2000/svg">
<path d="M400 787.5C186.325 787.5 12.5 613.675 12.5 400C12.5 186.325 186.325 12.5 400 12.5C613.675 12.5 787.5 186.325 787.5 400C787.5 613.675 613.675 787.5 400 787.5Z" fill="white"/>
<path d="M400 25C606.775 25 775 193.225 775 400C775 606.775 606.775 775 400 775C193.225 775 25 606.775 25 400C25 193.225 193.225 25 400 25ZM400 0C179.087 0 0 179.087 0 400C0 620.913 179.087 800 400 800C620.913 800 800 620.913 800 400C800 179.087 620.913 0 400 0Z" fill="#2DFC56"/>
<path d="M369.275 634.762V580.137C330.438 578.4 292.775 568.05 270.738 555.4L288.15 488.075C312.5 501.288 346.675 513.375 384.375 513.375C417.413 513.375 440.013 500.725 440.013 477.725C440.013 455.85 421.463 442.025 378.563 427.637C316.55 406.925 274.213 378.162 274.213 322.362C274.213 271.712 310.175 232.025 372.188 219.937V165.262H428.963V215.913C467.8 217.65 493.9 225.663 513.013 234.888L496.213 299.925C481.163 293.6 454.488 280.338 412.725 280.338C375.063 280.338 362.888 296.45 362.888 312.575C362.888 331.55 383.175 343.638 432.45 362.05C501.4 386.225 529.238 417.85 529.238 469.675C529.238 520.888 492.713 564.6 426.075 576.125V634.788H369.275V634.762Z" fill="#2DFC56" fill-opacity="0.85"/>
</svg>
