<svg width="6" height="52" viewBox="0 0 6 52" fill="none" xmlns="http://www.w3.org/2000/svg">
<path d="M3 0.666667C2.26362 0.666667 1.66667 1.26362 1.66667 2C1.66667 2.73638 2.26362 3.33333 3 3.33333C3.73638 3.33333 4.33333 2.73638 4.33333 2C4.33333 1.26362 3.73638 0.666667 3 0.666667ZM3 2H2.75L2.75 22H3H3.25L3.25 2H3Z" fill="#1D1D1D"/>
<path d="M3 48.6667C2.26362 48.6667 1.66667 49.2636 1.66667 50C1.66667 50.7364 2.26362 51.3333 3 51.3333C3.73638 51.3333 4.33333 50.7364 4.33333 50C4.33333 49.2636 3.73638 48.6667 3 48.6667ZM3 30H2.75L2.75 50H3H3.25L3.25 30H3Z" fill="#1D1D1D"/>
<path d="M2.50879 27.9959L2.51381 26.9433L2.50784 26.9401L0.642056 25.8596C0.603191 25.8342 0.570882 25.7999 0.547752 25.7596C0.524621 25.7192 0.511322 25.674 0.508932 25.6276L0.510189 25.3638C0.508846 25.3453 0.512188 25.3267 0.519905 25.3099C0.527621 25.293 0.539465 25.2783 0.554341 25.2673C0.569217 25.2562 0.586646 25.249 0.605018 25.2465C0.623389 25.2439 0.642111 25.246 0.659453 25.2526L2.17645 25.6977L2.51973 25.6996L2.52405 24.7925C2.53012 24.6941 2.54964 24.5971 2.58207 24.504L2.14872 24.2701C2.10939 24.2458 2.07655 24.2124 2.05303 24.1726C2.02951 24.1328 2.01603 24.0879 2.01374 24.0417L2.01389 23.9609C2.01424 23.92 2.03078 23.8808 2.0599 23.8519C2.08902 23.8231 2.12836 23.8069 2.16934 23.807L2.648 23.809L2.65675 23.8095L3.01914 23.8108L3.02835 23.8108L3.50655 23.8133C3.54753 23.8137 3.58672 23.8302 3.61556 23.8593C3.6444 23.8884 3.66057 23.9278 3.66053 23.9688L3.66014 24.0498C3.65729 24.0959 3.64327 24.1406 3.6193 24.1801C3.59532 24.2196 3.56211 24.2526 3.52253 24.2764L3.08743 24.5066C3.11893 24.6 3.13752 24.6972 3.14269 24.7956L3.13837 25.7028L3.48142 25.7039L5.0026 25.2732C5.02 25.2668 5.03874 25.2649 5.05709 25.2676C5.07543 25.2704 5.09279 25.2777 5.10756 25.2889C5.12233 25.3001 5.13404 25.3149 5.14159 25.3318C5.14915 25.3488 5.15231 25.3674 5.15079 25.3858L5.14954 25.6497C5.14668 25.6961 5.13294 25.7411 5.10943 25.7812C5.08592 25.8213 5.0533 25.8553 5.01421 25.8804L3.13822 26.9431L3.13222 26.9462L3.1272 27.9989C3.12685 28.1697 2.98594 28.6063 2.8151 28.6059C2.64427 28.6046 2.50798 28.1668 2.50879 27.9959Z" fill="#1D1D1D"/>
</svg>
