<svg width="384" height="1" viewBox="0 0 384 1" fill="none" xmlns="http://www.w3.org/2000/svg">
<g clip-path="url(#clip0_567_143)">
<path d="M6.61 0.0749969V0.659997H0.970001V0.0749969H6.61ZM14.2963 0.0749969V0.659997H8.65633V0.0749969H14.2963ZM21.9827 0.0749969V0.659997H16.3427V0.0749969H21.9827ZM29.669 0.0749969V0.659997H24.029V0.0749969H29.669ZM37.3553 0.0749969V0.659997H31.7153V0.0749969H37.3553ZM45.0416 0.0749969V0.659997H39.4016V0.0749969H45.0416ZM52.728 0.0749969V0.659997H47.088V0.0749969H52.728ZM60.4143 0.0749969V0.659997H54.7743V0.0749969H60.4143ZM68.1006 0.0749969V0.659997H62.4606V0.0749969H68.1006ZM75.787 0.0749969V0.659997H70.147V0.0749969H75.787ZM83.4733 0.0749969V0.659997H77.8333V0.0749969H83.4733ZM91.1596 0.0749969V0.659997H85.5196V0.0749969H91.1596ZM98.8459 0.0749969V0.659997H93.2059V0.0749969H98.8459ZM106.532 0.0749969V0.659997H100.892V0.0749969H106.532ZM114.219 0.0749969V0.659997H108.579V0.0749969H114.219ZM121.905 0.0749969V0.659997H116.265V0.0749969H121.905ZM129.591 0.0749969V0.659997H123.951V0.0749969H129.591ZM137.278 0.0749969V0.659997H131.638V0.0749969H137.278ZM144.964 0.0749969V0.659997H139.324V0.0749969H144.964ZM152.65 0.0749969V0.659997H147.01V0.0749969H152.65ZM160.337 0.0749969V0.659997H154.697V0.0749969H160.337ZM168.023 0.0749969V0.659997H162.383V0.0749969H168.023ZM175.709 0.0749969V0.659997H170.069V0.0749969H175.709ZM183.396 0.0749969V0.659997H177.756V0.0749969H183.396ZM191.082 0.0749969V0.659997H185.442V0.0749969H191.082ZM198.768 0.0749969V0.659997H193.128V0.0749969H198.768ZM206.455 0.0749969V0.659997H200.815V0.0749969H206.455ZM214.141 0.0749969V0.659997H208.501V0.0749969H214.141ZM221.827 0.0749969V0.659997H216.187V0.0749969H221.827ZM229.514 0.0749969V0.659997H223.874V0.0749969H229.514ZM237.2 0.0749969V0.659997H231.56V0.0749969H237.2ZM244.886 0.0749969V0.659997H239.246V0.0749969H244.886ZM252.572 0.0749969V0.659997H246.932V0.0749969H252.572ZM260.259 0.0749969V0.659997H254.619V0.0749969H260.259ZM267.945 0.0749969V0.659997H262.305V0.0749969H267.945ZM275.631 0.0749969V0.659997H269.991V0.0749969H275.631ZM283.318 0.0749969V0.659997H277.678V0.0749969H283.318ZM291.004 0.0749969V0.659997H285.364V0.0749969H291.004ZM298.69 0.0749969V0.659997H293.05V0.0749969H298.69ZM306.377 0.0749969V0.659997H300.737V0.0749969H306.377ZM314.063 0.0749969V0.659997H308.423V0.0749969H314.063ZM321.749 0.0749969V0.659997H316.109V0.0749969H321.749ZM329.436 0.0749969V0.659997H323.796V0.0749969H329.436ZM337.122 0.0749969V0.659997H331.482V0.0749969H337.122ZM344.808 0.0749969V0.659997H339.168V0.0749969H344.808ZM352.495 0.0749969V0.659997H346.855V0.0749969H352.495ZM360.181 0.0749969V0.659997H354.541V0.0749969H360.181ZM367.867 0.0749969V0.659997H362.227V0.0749969H367.867ZM375.554 0.0749969V0.659997H369.914V0.0749969H375.554ZM383.24 0.0749969V0.659997H377.6V0.0749969H383.24Z" fill="white" fill-opacity="0.56"/>
</g>
<defs>
<clipPath id="clip0_567_143">
<rect width="384" height="1" fill="white"/>
</clipPath>
</defs>
</svg>
