<svg width="14" height="13" viewBox="0 0 14 13" fill="none" xmlns="http://www.w3.org/2000/svg">
<mask id="path-1-inside-1_680_12" fill="white">
<path d="M10.8887 0C12.6069 0 14 1.45507 14 3.25V9.75C14 11.5449 12.6069 13 10.8887 13H3.11133C1.39311 13 0 11.5449 0 9.75V3.25C0 1.45507 1.39311 0 3.11133 0H10.8887ZM6.46094 4C6.00645 4.00005 5.59166 4.09137 5.2168 4.27441C4.84176 4.45361 4.54358 4.70667 4.32324 5.0332C4.10758 5.35579 4 5.72074 4 6.12695C4.00006 6.53293 4.10776 6.89917 4.32324 7.22559C4.54358 7.54816 4.84174 7.80118 5.2168 7.98438C5.59171 8.1635 6.00638 8.25288 6.46094 8.25293C6.7093 8.25293 6.9534 8.22563 7.19238 8.16992L8.16992 9H9L7.7627 7.95508C8.12358 7.77191 8.40703 7.52065 8.61328 7.20215C8.81951 6.88364 8.9228 6.52508 8.92285 6.12695C8.92285 5.7168 8.81522 5.3499 8.59961 5.02734C8.38395 4.70477 8.08795 4.45362 7.71289 4.27441C7.33791 4.09131 6.92026 4 6.46094 4ZM6.46094 4.47168C6.80785 4.47168 7.11774 4.53941 7.38965 4.6748C7.66157 4.8102 7.87458 5.00398 8.0293 5.25488C8.18862 5.50175 8.26855 5.79251 8.26855 6.12695C8.2685 6.45737 8.18865 6.7482 8.0293 6.99902C7.87464 7.24971 7.65919 7.44277 7.38281 7.57812C7.11089 7.71352 6.80319 7.78125 6.46094 7.78125C6.11888 7.7812 5.80969 7.71345 5.5332 7.57812C5.26128 7.44272 5.04514 7.24991 4.88574 6.99902C4.73107 6.7482 4.65435 6.45737 4.6543 6.12695C4.6543 5.79263 4.73121 5.5017 4.88574 5.25488C5.04514 5.00398 5.26128 4.8102 5.5332 4.6748C5.80497 4.53952 6.11426 4.47173 6.46094 4.47168Z"/>
</mask>
<path d="M6.46094 4L6.46094 3.6L6.46089 3.6L6.46094 4ZM5.2168 4.27441L5.38925 4.63534L5.39231 4.63385L5.2168 4.27441ZM4.32324 5.0332L3.99167 4.80946L3.99071 4.81089L4.32324 5.0332ZM4 6.12695L3.6 6.12695L3.6 6.12701L4 6.12695ZM4.32324 7.22559L3.98938 7.44599L3.99294 7.4512L4.32324 7.22559ZM5.2168 7.98438L5.04124 8.34381L5.04435 8.3453L5.2168 7.98438ZM6.46094 8.25293L6.46089 8.65293H6.46094V8.25293ZM7.19238 8.16992L7.45129 7.86502L7.29775 7.73464L7.10158 7.78036L7.19238 8.16992ZM8.16992 9L7.91101 9.3049L8.023 9.4H8.16992V9ZM9 9V9.4H10.0936L9.25808 8.6944L9 9ZM7.7627 7.95508L7.58166 7.59839L7.0437 7.87143L7.50461 8.26068L7.7627 7.95508ZM8.61328 7.20215L8.94903 7.41957L8.94905 7.41955L8.61328 7.20215ZM8.92285 6.12695L9.32285 6.12701V6.12695H8.92285ZM8.59961 5.02734L8.93216 4.80506L8.93214 4.80503L8.59961 5.02734ZM7.71289 4.27441L7.53737 4.63387L7.54044 4.63533L7.71289 4.27441ZM6.46094 4.47168L6.46094 4.07168L6.46088 4.07168L6.46094 4.47168ZM7.38965 4.6748L7.56794 4.31674L7.56794 4.31674L7.38965 4.6748ZM8.0293 5.25488L7.68876 5.46488L7.69321 5.47179L8.0293 5.25488ZM8.26855 6.12695L8.66855 6.12701V6.12695H8.26855ZM8.0293 6.99902L7.69164 6.78451L7.68887 6.789L8.0293 6.99902ZM7.38281 7.57812L7.20688 7.21888L7.20452 7.22006L7.38281 7.57812ZM6.46094 7.78125L6.46088 8.18125H6.46094V7.78125ZM5.5332 7.57812L5.35489 7.93619L5.35736 7.9374L5.5332 7.57812ZM4.88574 6.99902L4.54524 7.209L4.54812 7.21353L4.88574 6.99902ZM4.6543 6.12695L4.2543 6.12695L4.2543 6.12701L4.6543 6.12695ZM4.88574 5.25488L4.54811 5.04038L4.54671 5.04261L4.88574 5.25488ZM5.5332 4.6748L5.35495 4.31672L5.35491 4.31674L5.5332 4.6748ZM10.8887 0V0.4C12.3697 0.4 13.6 1.65938 13.6 3.25H14H14.4C14.4 1.25077 12.8441 -0.4 10.8887 -0.4V0ZM14 3.25H13.6V9.75H14H14.4V3.25H14ZM14 9.75H13.6C13.6 11.3406 12.3697 12.6 10.8887 12.6V13V13.4C12.8441 13.4 14.4 11.7492 14.4 9.75H14ZM10.8887 13V12.6H3.11133V13V13.4H10.8887V13ZM3.11133 13V12.6C1.63027 12.6 0.4 11.3406 0.4 9.75H0H-0.4C-0.4 11.7492 1.15595 13.4 3.11133 13.4V13ZM0 9.75H0.4V3.25H0H-0.4V9.75H0ZM0 3.25H0.4C0.4 1.65938 1.63027 0.4 3.11133 0.4V0V-0.4C1.15595 -0.4 -0.4 1.25077 -0.4 3.25H0ZM3.11133 0V0.4H10.8887V0V-0.4H3.11133V0ZM6.46094 4L6.46089 3.6C5.9513 3.60006 5.47569 3.70285 5.04128 3.91498L5.2168 4.27441L5.39231 4.63385C5.70763 4.47988 6.06161 4.40005 6.46098 4.4L6.46094 4ZM5.2168 4.27441L5.04435 3.9135C4.6088 4.12161 4.25417 4.42045 3.99167 4.80946L4.32324 5.0332L4.65482 5.25694C4.83299 4.9929 5.07472 4.78562 5.38925 4.63533L5.2168 4.27441ZM4.32324 5.0332L3.99071 4.81089C3.72878 5.20269 3.6 5.64581 3.6 6.12695H4H4.4C4.4 5.79568 4.48639 5.50888 4.65577 5.25551L4.32324 5.0332ZM4 6.12695L3.6 6.12701C3.60007 6.60812 3.72905 7.05155 3.98942 7.44596L4.32324 7.22559L4.65706 7.00521C4.48646 6.74679 4.40004 6.45775 4.4 6.1269L4 6.12695ZM4.32324 7.22559L3.99294 7.4512C4.25515 7.83507 4.60841 8.13238 5.04125 8.34379L5.2168 7.98438L5.39235 7.62496C5.07506 7.46998 4.83202 7.26125 4.65354 6.99997L4.32324 7.22559ZM5.2168 7.98438L5.04435 8.3453C5.47811 8.55254 5.95249 8.65287 6.46089 8.65293L6.46094 8.25293L6.46098 7.85293C6.06027 7.85289 5.70531 7.77447 5.38924 7.62345L5.2168 7.98438ZM6.46094 8.25293V8.65293C6.73883 8.65293 7.01344 8.62235 7.28318 8.55948L7.19238 8.16992L7.10158 7.78036C6.89335 7.8289 6.67976 7.85293 6.46094 7.85293V8.25293ZM7.19238 8.16992L6.93347 8.47483L7.91101 9.3049L8.16992 9L8.42883 8.6951L7.45129 7.86502L7.19238 8.16992ZM8.16992 9V9.4H9V9V8.6H8.16992V9ZM9 9L9.25808 8.6944L8.02078 7.64948L7.7627 7.95508L7.50461 8.26068L8.74192 9.3056L9 9ZM7.7627 7.95508L7.94373 8.31176C8.3635 8.09871 8.70199 7.80106 8.94903 7.41957L8.61328 7.20215L8.27753 6.98473C8.11207 7.24024 7.88366 7.44511 7.58166 7.59839L7.7627 7.95508ZM8.61328 7.20215L8.94905 7.41955C9.19928 7.03307 9.32279 6.59832 9.32285 6.12701L8.92285 6.12695L8.52285 6.1269C8.52281 6.45183 8.43974 6.73421 8.27752 6.98475L8.61328 7.20215ZM8.92285 6.12695H9.32285C9.32285 5.64267 9.19444 5.19744 8.93216 4.80506L8.59961 5.02734L8.26706 5.24963C8.43599 5.50236 8.52285 5.79094 8.52285 6.12695H8.92285ZM8.59961 5.02734L8.93214 4.80503C8.6736 4.41832 8.3203 4.12133 7.88534 3.9135L7.71289 4.27441L7.54044 4.63533C7.8556 4.78592 8.0943 4.99122 8.26708 5.24966L8.59961 5.02734ZM7.71289 4.27441L7.8884 3.91498C7.45326 3.7025 6.97465 3.6 6.46094 3.6V4V4.4C6.86587 4.4 7.22256 4.48013 7.53738 4.63385L7.71289 4.27441ZM6.46094 4.47168V4.87168C6.75487 4.87168 7.00228 4.92876 7.21135 5.03287L7.38965 4.6748L7.56794 4.31674C7.2332 4.15006 6.86083 4.07168 6.46094 4.07168V4.47168ZM7.38965 4.6748L7.21135 5.03287C7.41801 5.13577 7.57419 5.27894 7.68883 5.46484L8.0293 5.25488L8.36977 5.04493C8.17496 4.72903 7.90513 4.48464 7.56794 4.31674L7.38965 4.6748ZM8.0293 5.25488L7.69321 5.47179C7.80537 5.64557 7.86855 5.85874 7.86855 6.12695H8.26855H8.66855C8.66855 5.72627 8.57188 5.35794 8.36538 5.03798L8.0293 5.25488ZM8.26855 6.12695L7.86855 6.12689C7.86851 6.39004 7.80587 6.60477 7.69167 6.78453L8.0293 6.99902L8.36692 7.21352C8.57142 6.89163 8.66849 6.52469 8.66855 6.12701L8.26855 6.12695ZM8.0293 6.99902L7.68887 6.789C7.57564 6.97253 7.41856 7.11522 7.20688 7.21889L7.38281 7.57812L7.55874 7.93736C7.89982 7.77032 8.17363 7.52689 8.36972 7.20905L8.0293 6.99902ZM7.38281 7.57812L7.20452 7.22006C6.99473 7.32452 6.74932 7.38125 6.46094 7.38125V7.78125V8.18125C6.85706 8.18125 7.22705 8.10253 7.56111 7.93619L7.38281 7.57812ZM6.46094 7.78125L6.461 7.38125C6.17309 7.38121 5.92503 7.32456 5.70905 7.21885L5.5332 7.57812L5.35736 7.9374C5.69436 8.10234 6.06467 8.18119 6.46088 8.18125L6.46094 7.78125ZM5.5332 7.57812L5.71151 7.22006C5.50276 7.11612 5.34253 6.97208 5.22336 6.78452L4.88574 6.99902L4.54812 7.21353C4.74775 7.52775 5.0198 7.76932 5.3549 7.93619L5.5332 7.57812ZM4.88574 6.99902L5.22621 6.78907C5.11533 6.60927 5.05434 6.39307 5.0543 6.12689L4.6543 6.12695L4.2543 6.12701C4.25435 6.52166 4.34681 6.88714 4.54527 7.20898L4.88574 6.99902ZM4.6543 6.12695H5.0543C5.0543 5.85591 5.11591 5.64103 5.22477 5.46716L4.88574 5.25488L4.54671 5.04261C4.34651 5.36237 4.2543 5.72935 4.2543 6.12695H4.6543ZM4.88574 5.25488L5.22337 5.46938C5.3429 5.28123 5.50339 5.13649 5.7115 5.03287L5.5332 4.6748L5.35491 4.31674C5.01917 4.48391 4.74738 4.72673 4.54812 5.04039L4.88574 5.25488ZM5.5332 4.6748L5.71146 5.03289C5.92055 4.9288 6.16744 4.87172 6.46099 4.87168L6.46094 4.47168L6.46088 4.07168C6.06109 4.07174 5.68939 4.15023 5.35495 4.31672L5.5332 4.6748Z" fill="#1D1D1D" mask="url(#path-1-inside-1_680_12)"/>
</svg>
