<svg width="77" height="10" viewBox="0 0 77 10" fill="none" xmlns="http://www.w3.org/2000/svg">
<path d="M41.4666 8.5646C40.8723 9.21596 40.1149 9.65944 39.2908 9.83916C38.4663 10.0188 37.612 9.92656 36.8352 9.57417C36.0587 9.22166 35.3951 8.62473 34.9283 7.85891C34.4611 7.0931 34.2119 6.19273 34.2119 5.27178C34.2119 4.35073 34.4611 3.45036 34.9283 2.68451C35.3951 1.91871 36.0587 1.32183 36.8352 0.969357C37.612 0.616896 38.4663 0.524668 39.2908 0.704363C40.1149 0.884047 40.8723 1.32756 41.4666 1.97884C41.8613 2.41127 42.174 2.92466 42.3876 3.48963C42.6014 4.05463 42.7113 4.66021 42.7113 5.27178C42.7113 5.88325 42.6014 6.48879 42.3876 7.05387C42.174 7.61884 41.8613 8.13218 41.4666 8.5646ZM41.8178 5.29503C41.8178 5.06457 41.279 4.87781 41.0688 4.87781L39.7725 4.87826L39.7688 4.86999L38.4497 2.34568C38.4188 2.29309 38.3766 2.2493 38.327 2.21786C38.2776 2.18642 38.222 2.16823 38.1648 2.16476H37.8398C37.817 2.16289 37.7942 2.16732 37.7734 2.17763C37.7528 2.18795 37.7348 2.20382 37.7211 2.22379C37.7076 2.24375 37.6987 2.26718 37.6953 2.2919C37.6919 2.31662 37.6946 2.34184 37.7024 2.36524L38.2409 4.41533V4.87871L37.1245 4.87781C37.0035 4.88541 36.8838 4.91123 36.7692 4.95437L36.4837 4.36962C36.4541 4.31642 36.4133 4.27183 36.3643 4.23983C36.3157 4.20778 36.2602 4.18923 36.2035 4.18577L36.1039 4.18532C36.0532 4.18532 36.005 4.20734 35.9689 4.2465C35.9332 4.28568 35.9131 4.33877 35.9131 4.3941V5.03965L35.9135 5.05172L35.9131 5.54047V5.55287L35.9128 6.19798C35.9131 6.2533 35.9332 6.30639 35.9689 6.34551C36.0046 6.38463 36.0529 6.40664 36.1036 6.40675H36.2035C36.2602 6.4034 36.3157 6.38485 36.3643 6.35277C36.4133 6.32081 36.4541 6.27621 36.4837 6.22301L36.7692 5.63737C36.8841 5.68028 37.0038 5.70599 37.1248 5.71348L38.2409 5.71303L38.2412 6.17596L37.7021 8.22528C37.6943 8.24864 37.6915 8.2739 37.6949 8.2986C37.698 8.3233 37.7072 8.34677 37.7208 8.36666C37.7344 8.38667 37.7524 8.40254 37.7731 8.41282C37.7939 8.42321 37.8167 8.42757 37.8394 8.42567H38.1645C38.2216 8.42221 38.2773 8.40399 38.327 8.37247C38.3766 8.34095 38.4188 8.29714 38.4497 8.24439L39.7685 5.7213L39.7725 5.71258L41.0688 5.71225C41.279 5.71225 41.8171 5.52583 41.8178 5.29503Z" fill="white" fill-opacity="0.86"/>
<mask id="mask0_403_2" style="mask-type:luminance" maskUnits="userSpaceOnUse" x="43" y="5" width="34" height="1">
<path d="M76.5385 5.01931H43.2212V5.76433H76.5385V5.01931Z" fill="white"/>
</mask>
<g mask="url(#mask0_403_2)">
<path d="M45.9138 5.3289V5.46972H43.3147V5.3289H45.9138ZM49.3002 5.3289V5.46972H46.7011V5.3289H49.3002ZM52.6866 5.3289V5.46972H50.0874V5.3289H52.6866ZM56.0729 5.3289V5.46972H53.4738V5.3289H56.0729ZM59.4593 5.3289V5.46972H56.8602V5.3289H59.4593ZM62.8457 5.3289V5.46972H60.2466V5.3289H62.8457ZM66.2321 5.3289V5.46972H63.6339V5.3289H66.2321ZM69.6184 5.3289V5.46972H67.0203V5.3289H69.6184ZM73.0048 5.3289V5.46972H70.4067V5.3289H73.0048ZM76.3912 5.3289V5.46972H73.7931V5.3289H76.3912Z" fill="white" fill-opacity="0.86"/>
</g>
<mask id="mask1_403_2" style="mask-type:luminance" maskUnits="userSpaceOnUse" x="0" y="5" width="34" height="1">
<path d="M33.7018 5.01931H0.384521V5.76433H33.7018V5.01931Z" fill="white"/>
</mask>
<g mask="url(#mask1_403_2)">
<path d="M3.07675 5.3289V5.46972H0.478027V5.3289H3.07675ZM6.46322 5.3289V5.46972H3.8645V5.3289H6.46322ZM9.84969 5.3289V5.46972H7.25097V5.3289H9.84969ZM13.2363 5.3289V5.46972H10.6374V5.3289H13.2363ZM16.6227 5.3289V5.46972H14.0239V5.3289H16.6227ZM20.0092 5.3289V5.46972H17.4105V5.3289H20.0092ZM23.3957 5.3289V5.46972H20.797V5.3289H23.3957ZM26.7822 5.3289V5.46972H24.1834V5.3289H26.7822ZM30.1686 5.3289V5.46972H27.5699V5.3289H30.1686ZM33.5551 5.3289V5.46972H30.9564V5.3289H33.5551Z" fill="white" fill-opacity="0.86"/>
</g>
</svg>
