<svg width="20" height="32" viewBox="0 0 20 32" fill="none" xmlns="http://www.w3.org/2000/svg">
<path d="M20 23.8495V13.0974C20 9.69285 17.2571 6.82035 13.5267 5.93133V1.54419C13.5267 1.50919 13.5097 1.47833 13.5026 1.44519C13.7024 1.34019 13.8419 1.16346 13.8419 0.951175V0.593013C13.8419 0.265051 13.5253 0 13.1335 0H6.86567C6.47391 0 6.15729 0.265051 6.15729 0.593013V0.951175C6.15729 1.16346 6.29756 1.34074 6.49735 1.44519C6.49032 1.47844 6.47326 1.50864 6.47326 1.54419V5.93133C2.74288 6.8209 0 9.6934 0 13.0974V23.8495C0 26.3514 1.4841 28.564 3.74887 29.9172C3.54126 30.1366 3.41167 30.4106 3.41167 30.7125C3.41167 31.4235 4.10026 31.9999 4.94956 31.9999C5.67631 31.9999 6.28206 31.5764 6.44213 31.0089C7.22566 31.1981 8.05022 31.3055 8.90591 31.3055H11.0927C11.8662 31.3055 12.6136 31.2136 13.3298 31.0577C13.5111 31.5996 14.0998 32 14.8055 32C15.6548 32 16.3433 31.4236 16.3433 30.7126C16.3433 30.4546 16.2505 30.2156 16.0947 30.014C18.4508 28.6713 20 26.4095 20 23.8495ZM7.89146 5.64142V2.1372H12.1106V5.64131H11.0941H8.90734L7.89146 5.64142ZM1.4182 13.0974C1.4182 9.64008 4.77803 6.82744 8.90734 6.82744H11.0941C15.2233 6.82744 18.5832 9.64008 18.5832 13.0974V14.3581H1.4182V13.0974ZM14.3344 29.4938C14.1984 29.5306 14.068 29.578 13.9511 29.6433C13.0699 29.9494 12.1057 30.1201 11.0941 30.1201H8.90734C4.77816 30.1201 1.4182 27.3075 1.4182 23.8501V15.5443H18.5832V23.8495C18.5832 26.3343 16.8435 28.4798 14.3344 29.4938Z" fill="#1D1D1D"/>
</svg>
